inDegrees=no
num_controls=7
num_derivatives=13
num_iterations=122
num_multipliers=7
num_parameters=0
num_slacks=7
num_states=26
objective=5.439759
objective_accelerations=0.675543
objective_balance=0.031858
objective_effort=0.241344
objective_height=4.355539
objective_ligament=0.135474
solver_duration=1281.717858
status=Solve_Succeeded
success=true
DataType=double
version=3
OpenSimVersion=4.4-2022-07-23-0e9fedc
endheader
time	/jointset/ground_pelvis/pelvis_tilt/value	/jointset/ground_pelvis/pelvis_tx/value	/jointset/ground_pelvis/pelvis_ty/value	/jointset/hip_l/hip_flexion_l/value	/jointset/hip_l/hip_adduction_l/value	/jointset/hip_l/hip_rotation_l/value	/jointset/back/lumbar_extension/value	/jointset/patellofemoral_l/patellar_flexion_l/value	/jointset/knee_l/knee_flexion_l/value	/jointset/knee_l/knee_adduction_l/value	/jointset/knee_l/knee_rotation_l/value	/jointset/ankle_l/ankle_angle_l/value	/jointset/subtalar_l/subtalar_angle_l/value	/jointset/ground_pelvis/pelvis_tilt/speed	/jointset/ground_pelvis/pelvis_tx/speed	/jointset/ground_pelvis/pelvis_ty/speed	/jointset/hip_l/hip_flexion_l/speed	/jointset/hip_l/hip_adduction_l/speed	/jointset/hip_l/hip_rotation_l/speed	/jointset/back/lumbar_extension/speed	/jointset/patellofemoral_l/patellar_flexion_l/speed	/jointset/knee_l/knee_flexion_l/speed	/jointset/knee_l/knee_adduction_l/speed	/jointset/knee_l/knee_rotation_l/speed	/jointset/ankle_l/ankle_angle_l/speed	/jointset/subtalar_l/subtalar_angle_l/speed	/forceset/tau_hip_flexion_l	/forceset/tau_hip_adduction_l	/forceset/tau_hip_rotation_l	/forceset/tau_knee_flexion_l	/forceset/tau_ankle_angle_l	/forceset/tau_subtalar_angle_l	/forceset/tau_lumbar_extension	lambda_cid13_p0	lambda_cid13_p1	lambda_cid13_p2	lambda_cid13_p3	lambda_cid13_p4	lambda_cid13_p5	lambda_cid14_p0	/jointset/ground_pelvis/pelvis_tilt/accel	/jointset/ground_pelvis/pelvis_tx/accel	/jointset/ground_pelvis/pelvis_ty/accel	/jointset/hip_l/hip_flexion_l/accel	/jointset/hip_l/hip_adduction_l/accel	/jointset/hip_l/hip_rotation_l/accel	/jointset/back/lumbar_extension/accel	/jointset/patellofemoral_l/patellar_flexion_l/accel	/jointset/knee_l/knee_flexion_l/accel	/jointset/knee_l/knee_adduction_l/accel	/jointset/knee_l/knee_rotation_l/accel	/jointset/ankle_l/ankle_angle_l/accel	/jointset/subtalar_l/subtalar_angle_l/accel	gamma_cid13_p0	gamma_cid13_p1	gamma_cid13_p2	gamma_cid13_p3	gamma_cid13_p4	gamma_cid13_p5	gamma_cid14_p0
0.5	-0.2284914855146885	0.01264889428268218	0.7742477083426416	0.9439257507398227	-0.4082717645415596	-0.3017836379958321	-0.2506280864730867	0.8531821307802212	0.8531821307802457	0.01507481013123539	-0.173715752995762	0.2242319827585623	0.07487939192193493	-0.4763654364690895	-0.1007047383215827	-0.509070008822974	2.060663553438995	-0.2039191206168441	0.4781386329899753	-0.1388960993237063	2.141513746725571	2.141513746725617	0.5249087846765211	-0.01996774090650103	0.7682088534945115	0.244884404168926	-0.116942214347363	0.02862531595690238	-0.01969425266418467	-0.2406244320088108	0.01625303625019088	0.04612694000745717	0.1322752520746805	-25.46747495101735	-17.59466661128593	4.777515574247344	-2.289672400977268	-517.7534250136391	-69.22782868086148	-23.14133353174512	0.5169598818423589	0.4367284083166909	-0.5923005653156209	-1.085558879793684	0.1844165628887646	-0.5778709726134167	0.9932745443031177	-1.204702577563402	-1.204702577563409	-0.214014331847672	0.4168766719194816	-0.6857307747521241	0.01912123037186653	-3.83069585761521e-07	-4.162202932173101e-06	-2.139745387560346e-06	-9.298249856417541e-07	2.607149773015675e-08	-1.420400917409184e-06	-4.65006215976032e-07
0.51	-0.2332281076336221	0.01166384709943753	0.769128555960883	0.9644743368345334	-0.410302468706133	-0.2970376269939443	-0.2519680043804384	0.8745336740225087	0.8745336740225239	0.0203148271393686	-0.1739002442791312	0.231878429147735	0.07732738879528404	-0.4708882760491229	-0.09629035241567049	-0.5146473148195192	2.048765777344693	-0.2022231245504855	0.4709941721050128	-0.1291004307469631	2.128503795175106	2.128503795175163	0.5230427384370475	-0.01697123564506098	0.7609736852161015	0.2446383296985727	-0.1207304787312087	0.03048965811419486	-0.0206701268666779	-0.2441823982900108	0.0141131163098917	0.04712182611102619	0.1353820267403479	-26.26091388711736	-17.7577926150454	4.655000490398526	-2.108736687611386	-521.1920684394673	-69.07788343032843	-22.10212233334742	0.57377419228149	0.4457628799440092	-0.5234703540661774	-1.284987004595404	0.1626461432578439	-0.79332431455863	0.9707707243879813	-1.39271617218793	-1.392716172186152	-0.1813674853702642	0.2345287927509619	-0.7586682909711863	-0.05706904352326752	-3.810336798927272e-07	-3.986781704070229e-06	-1.958626472963877e-06	-8.935449699655591e-07	-1.53102546211424e-09	-1.459566605271209e-06	-4.457356959013949e-07
0.52	-0.2379078221343196	0.01072333761489509	0.7639570255717104	0.9848953251622115	-0.4123161219070998	-0.292365178734528	-0.253210354060022	0.895746402803609	0.8957464028036287	0.02553449014207017	-0.1740560722419891	0.2394492721668049	0.0797708054723722	-0.4649839128208434	-0.0917971985811387	-0.519545610305766	2.035144000036517	-0.2005089278941792	0.4634260844952102	-0.1193824537690945	2.113750854488648	2.113750854488718	0.5208379835826444	-0.01423507680383176	0.7530881794742619	0.2439683649168445	-0.1245187431152161	0.03235400027145524	-0.02164600106907522	-0.2477403645712166	0.01197319636959445	0.04811671221455274	0.1384888014058711	-27.05586735362413	-17.92627429622949	4.539757648081833	-1.946588530630919	-524.6645832965454	-68.95167166660325	-21.068001242191	0.6024004435049196	0.4524819940406216	-0.4564984632559213	-1.430359122568164	0.1880566808783258	-0.6625963175814689	0.9777362245281495	-1.553300404761884	-1.553300404761875	-0.2817560548335825	0.3648073878772878	-0.8157982674380363	-0.06565683190313476	-3.762949900301416e-07	-3.800168344711747e-06	-1.783402414645587e-06	-8.533429333818113e-07	-2.842843854287921e-08	-1.484601632613267e-06	-4.244409709467722e-07
0.53	-0.242526436292425	0.009828096854054637	0.7587399616081877	1.005171626656695	-0.4143125940834275	-0.2877697588108691	-0.2543560207467686	0.9168030129256881	0.9168030129257028	0.03073003931250249	-0.1741853208608695	0.2469380672148449	0.08220529309353442	-0.4586744027040444	-0.08724210052299103	-0.5237487075400745	2.019840067093163	-0.1987862875153679	0.4555994212183452	-0.1097753642957644	2.097291013482712	2.097291013482761	0.5182178340617679	-0.011654503928471	0.7445707961517665	0.2428525208620801	-0.1282054068893389	0.03410940382838384	-0.02274038461272226	-0.2514191052095143	0.009891143967028393	0.04902338001631568	0.1414927219812058	-27.84481420154168	-18.05525554698384	4.415661885357986	-1.73602793420719	-528.23359045813	-68.76876116567685	-20.0440605119778	0.6549662025762689	0.4581852260463345	-0.3844526359710029	-1.621774694852736	0.1648099590674874	-0.851663105711317	0.9485232014279457	-1.73426676432397	-1.734266764327095	-0.2608472071706855	0.1983552308585125	-0.8849390718681599	-0.1452474967690064	-3.687110066352095e-07	-3.598710099056579e-06	-1.603959833444503e-06	-8.101717024112714e-07	-5.113564441249712e-08	-1.491084349950204e-06	-4.022034150429123e-07
0.54	-0.2470800073680038	0.008978639376664628	0.7534844192158311	1.025286615958808	-0.4162917514074342	-0.2832543978745885	-0.2554063509602448	0.9376866364745645	0.9376866364745403	0.03589764642645905	-0.1742900291522647	0.2543386422882111	0.08462648241324719	-0.4519752963148774	-0.08264054189104947	-0.5272412960724958	2.002881561564465	-0.197045957429129	0.4474142870225864	-0.1003151591147308	2.079153539844193	2.079153539844222	0.5152495722826402	-0.009327011313391474	0.7354441845407563	0.2413087046270749	-0.1318920706635692	0.03586480738520297	-0.02383476815649133	-0.2550978458478212	0.007809091564439703	0.04993004781791585	0.1444966425564757	-28.63443260809339	-18.18982972571999	4.298978675359184	-1.54974100433266	-531.8230984584038	-68.60895119398515	-19.03316698391837	0.6803196979785239	0.4617741087994379	-0.3143967228784835	-1.761273639637218	0.1915946223638294	-0.7342905013602303	0.9483593660688389	-1.888826931278577	-1.888826931278562	-0.3513785064838305	0.3141913358210084	-0.9376439251409544	-0.1512512679513042	-3.579790389066174e-07	-3.380827723881672e-06	-1.419849950330539e-06	-7.63715405310664e-07	-6.920687634637778e-08	-1.477041107281476e-06	-3.789227270250027e-07
0.55	-0.2515647176515056	0.008175373508989902	0.7481975437881518	1.045223907646398	-0.418253436851071	-0.2788218939162585	-0.2563629139700319	0.9583806426642489	0.9583806426641994	0.04103344142819162	-0.1743721958011624	0.2616449754405612	0.08703003326087178	-0.4449047718725663	-0.07800919311414735	-0.5300106172658241	1.984306859486708	-0.1952910534398266	0.439032806936094	-0.09103710573429641	2.059376910479932	2.05937691047992	0.5118549670543922	-0.007149416518702385	0.7257288748805533	0.2393252470183638	-0.1354719841146658	0.03753078737640202	-0.02503247155752286	-0.2588793590431364	0.00577472260328759	0.050733172108266	0.1473899717059276	-29.42093572439355	-18.27582178594719	4.169801780762775	-1.306046452896918	-535.4815435257578	-68.37157211368195	-18.03761978823405	0.7297681061361098	0.4641833665318565	-0.2397398007046191	-1.945998671101574	0.1678990763673532	-0.8983230168943298	0.9115788903004964	-2.062625835497706	-2.06262583550366	-0.3421811292797066	0.1627909416148988	-1.002709485813992	-0.2326440340852006	-3.465215333876207e-07	-3.156238051553544e-06	-1.229655678407257e-06	-7.152507221865884e-07	-8.497215577628781e-08	-1.446157675040162e-06	-3.563024304767638e-07
0.5600000000000001	-0.2559768528328336	0.007418494749963337	0.7428866671519101	1.06496736627736	-0.4201974810969883	-0.2744748540096862	-0.2572278863327614	0.978868773580953	0.9788687735809555	0.04613355445804443	-0.1744339370241043	0.2688513084964447	0.08941159932705794	-0.4374602758791066	-0.07336312016141745	-0.5320415377849195	1.964114950238681	-0.1935177178843919	0.4303214766655792	-0.08199702970306819	2.03797848525576	2.037978485255708	0.5081131778947695	-0.005241926111124209	0.7154441652461901	0.2369117483394896	-0.1390518975656971	0.03919676736771126	-0.02623017495811162	-0.2626608722384227	0.003740353642161304	0.05153629639877958	0.1502833008554008	-30.20825285229083	-18.36712863982788	4.047704081643166	-1.088134875934887	-539.1600741769302	-68.1577469041688	-17.0591551215063	0.7551140082081912	0.4647189439650131	-0.1667165880319128	-2.08471507369124	0.1952809355902738	-0.8002605381647298	0.9007638962276009	-2.213186103260658	-2.213186103260669	-0.4208152927587815	0.2601704583988164	-1.051523919972976	-0.2372594819839224	-3.341933825201385e-07	-2.923599622641549e-06	-1.032160139912794e-06	-6.64375975834351e-07	-9.797029220143318e-08	-1.395066015311745e-06	-3.344746036921299e-07
0.5700000000000001	-0.2603127867109721	0.006708103442740182	0.7375591988870288	1.084500987345403	-0.4221237697828564	-0.2702158097651766	-0.2580037009173798	0.9991349667805952	0.9991349667805737	0.05119397193870394	-0.1744775504284456	0.2759520124097172	0.09176674626906005	-0.4296686154640741	-0.06871618713577737	-0.5333252893045923	1.942343373769978	-0.1917460818348525	0.4214308853604979	-0.07321851978795697	2.014997482735045	2.014997482735034	0.5039056601395993	-0.003542885948597071	0.7046083585552666	0.234031305614392	-0.1424897522371062	0.04067266785511327	-0.02751065003590826	-0.2665776402126606	0.001786381226094136	0.05228097267667742	0.1530411068049749	-30.97776209544679	-18.43487851073402	3.920377584724675	-0.8310719624952573	-542.8743246354807	-67.92158214045192	-16.09899667461124	0.7999136046527884	0.4643964843895568	-0.09020161546069926	-2.263218768546916	0.1675347051655493	-0.9421230646103187	0.858499654160351	-2.379893691476999	-2.379893691470905	-0.4308408255636398	0.115234269053433	-1.113019112983106	-0.3258280297520537	-3.200160793889108e-07	-2.687289766516351e-06	-8.418123936504403e-07	-6.126317021217202e-07	-1.077843293211824e-07	-1.330843102384976e-06	-3.123401371286293e-07
0.58	-0.2645690596756656	0.006044124666278523	0.7322226936706453	1.103808924681715	-0.4240324561551307	-0.266047404361287	-0.258693309379853	1.01916348268202	1.019163482682008	0.05621029008011666	-0.1745060807363968	0.2829416762422167	0.09409061051141486	-0.4215280931889646	-0.06408061400911831	-0.5338489280852998	1.918978203897787	-0.1899972551641294	0.4121937085381986	-0.06475580527254397	1.990443025614329	1.990443025614359	0.499293310037728	-0.002225306831115137	0.6932361490911021	0.230655208410122	-0.1459276069087001	0.04214856834254776	-0.02879112511354395	-0.270494408186896	-0.0001675911899467471	0.05302564895463776	0.1557989127543566	-31.74864738768612	-18.50782205448951	3.80008541146338	-0.60005963486682	-546.6153665416314	-67.71066684450258	-15.15788746863208	0.8248863802235119	0.4624469641688403	-0.01469404023886886	-2.403433754388719	0.1907190598270352	-0.8695776416083183	0.8376048162879344	-2.527877023260586	-2.527877023260598	-0.501781762099048	0.1838782493897823	-1.158804474621124	-0.3363903778184276	-3.034305779607126e-07	-2.446198516811168e-06	-6.607734000624627e-07	-5.597550206839264e-07	-1.134516324618111e-07	-1.249519022502212e-06	-2.898063257368375e-07
0.59	-0.2687423284265606	0.00542638160393505	0.7268847577605205	1.122875505637925	-0.4259237422346515	-0.2619721460923934	-0.2592998852163207	1.038938771159339	1.038938771159353	0.06117792193752241	-0.1745227298786559	0.2898150020952388	0.09637822984367678	-0.4130751053654548	-0.05947527333864375	-0.5336097070771834	1.894084706406194	-0.1882654221297653	0.4028179869779057	-0.05662149198467999	1.964361691498562	1.964361691498591	0.4941558328865517	-0.001165132708757466	0.6813448610533515	0.2267804250073163	-0.149247871794351	0.04366427950701818	-0.03014503307446601	-0.274417108493278	-0.00208947660601814	0.05359210620210259	0.1584315537076001	-32.52104697072885	-18.48988076832494	3.650205484588982	-0.2853542916385083	-550.3332270987402	-67.31697965442996	-14.23613974640372	0.8631152196142019	0.458380631367417	0.06248884635925264	-2.570269042075678	0.1638343341532708	-0.9777469836909314	0.7920250905134145	-2.686153037638126	-2.686153037638262	-0.5316526474563152	0.05784788509402627	-1.217056981038571	-0.4258201972758471	-2.909142122582761e-07	-2.203032972603691e-06	-4.476313156801184e-07	-5.048643701740831e-07	-1.199823031178729e-07	-1.147625627539833e-06	-2.71604218093982e-07
